<svg xmlns="http://www.w3.org/2000/svg" viewBox="0 0 512 512">
  <defs>
    <linearGradient id="bg" x1="0%" y1="0%" x2="100%" y2="100%">
      <stop offset="0%" stop-color="#f97316" />
      <stop offset="100%" stop-color="#f59e0b" />
    </linearGradient>
  </defs>
  <rect width="512" height="512" rx="120" fill="#09090b" />
  <rect x="96" y="96" width="320" height="320" rx="84" fill="url(#bg)" />
  <path
    d="M302.9 206.6c-7.2-42.8-47.2-55.4-95.9-62.1l7.7-51.9-31.7-4.8-7.6 50.8c-8.3-1.3-16.7-2.4-25.1-3.7l7.7-51-31.7-4.8-7.9 52c-6.9-1.2-13.6-2.4-20.1-3.7l-43.5-6.7-5 33.9s23.4 5.5 23 5.7c12.8 3.2 15.1 11.4 14.6 18.1l-14.8 98.9c-.8 4.1-3.9 10.5-11.8 8.3.3.5-22.9-5.7-22.9-5.7l-9.4 39.2 41.3 10.3c7.6 1.9 15 3.9 22.4 5.7l-8 52.6 31.7 4.8 7.8-52.2c8.8 1.9 17.3 3.5 25.7 5l-7.6 51.7 31.7 4.8 8-52.4c54.5 10.3 95.2 6.1 112.5-43.1 13.9-39.8-.7-62.7-29.4-77.6 20.8-4.8 36.8-18.5 40.8-46.8Zm-73.1 102.5c-9.8 39.6-75.8 18.2-97 12.7l17.3-114.7c21.5 5.3 90 16 79.7 102Zm9.8-102.8c-8.9 35.9-63.7 17.6-81.4 13.2l15.6-104c17.8 4.4 75.2 12.6 65.8 90.8Z"
    fill="#fff"
  />
</svg>
